<svg width="32" height="32" viewBox="0 0 32 32" fill="none" xmlns="http://www.w3.org/2000/svg">
<rect x="0.5" y="0.5" width="31" height="31" rx="15.5" fill="#FEFEFE"/>
<rect x="0.5" y="0.5" width="31" height="31" rx="15.5" stroke="#E2E8F0"/>
<path d="M17.2585 8.61587C16.7152 7.62837 15.2852 7.62837 14.741 8.61587C14.0254 9.91619 13.4355 11.2818 12.9793 12.6942C12.9578 12.7495 12.92 12.7968 12.8708 12.83C12.8217 12.8633 12.7636 12.8807 12.7043 12.88C11.4818 12.9118 10.2633 13.0332 9.0585 13.2434C7.94433 13.4375 7.4535 14.7742 8.30016 15.6017C8.40683 15.7061 8.51461 15.81 8.6235 15.9134C9.43917 16.6857 10.3028 17.4058 11.2093 18.0692C11.2505 18.0965 11.2817 18.1365 11.2982 18.1831C11.3148 18.2297 11.3157 18.2804 11.301 18.3275C10.8434 19.7006 10.5164 21.1138 10.3243 22.5484C10.166 23.735 11.4227 24.4634 12.4035 23.96C13.5942 23.3498 14.7328 22.6427 15.8077 21.8459C15.864 21.806 15.9312 21.7847 16.0002 21.7847C16.0691 21.7847 16.1364 21.806 16.1927 21.8459C17.2669 22.6436 18.4055 23.3508 19.5968 23.96C20.5777 24.4634 21.8343 23.735 21.676 22.5484C21.4842 21.1139 21.1575 19.7006 20.7002 18.3275C20.6854 18.2804 20.6864 18.2297 20.7029 18.1831C20.7194 18.1365 20.7506 18.0965 20.7918 18.0692C21.8189 17.3174 22.7908 16.4931 23.7002 15.6025C24.5468 14.7742 24.056 13.4375 22.9418 13.2434C21.7368 13.0332 20.518 12.9118 19.2952 12.88C19.236 12.8805 19.1781 12.863 19.1291 12.8298C19.0802 12.7966 19.0425 12.7493 19.021 12.6942C18.5663 11.2813 17.9755 9.91551 17.2585 8.61587Z" fill="#D4A574"/>
</svg>
