<svg width="64" height="64" viewBox="0 0 64 64" fill="none" xmlns="http://www.w3.org/2000/svg">
<rect x="1" y="1" width="62" height="62" rx="31" fill="white" stroke="#E2E8F0" stroke-width="2"/>
<path d="M28.0181 27.6087L31.0491 21.5047C31.1373 21.328 31.273 21.1794 31.441 21.0756C31.6089 20.9718 31.8025 20.9167 32 20.9167C32.1974 20.9167 32.391 20.9718 32.5589 21.0756C32.7269 21.1794 32.8626 21.328 32.9508 21.5047L35.9818 27.6087L42.7578 28.5933C42.9532 28.6204 43.1371 28.702 43.2885 28.8286C43.4398 28.9552 43.5525 29.1218 43.6137 29.3094C43.6749 29.4969 43.6821 29.698 43.6345 29.8895C43.587 30.081 43.4865 30.2552 43.3446 30.3923L38.4423 35.1407L39.5996 41.849C39.7478 42.71 38.8378 43.3657 38.0596 42.9597L32 39.791L25.9391 42.9597C25.1621 43.3668 24.2521 42.71 24.4003 41.8478L25.5576 35.1395L20.6553 30.3912C20.5141 30.254 20.4142 30.0799 20.3671 29.8887C20.3199 29.6976 20.3273 29.497 20.3884 29.3098C20.4496 29.1227 20.562 28.9564 20.7129 28.83C20.8638 28.7035 21.0472 28.622 21.2421 28.5945L28.0181 27.6087Z" stroke="#E2E8F0" stroke-width="1.75" stroke-linecap="round" stroke-linejoin="round"/>
</svg>
