<svg width="64" height="64" viewBox="0 0 64 64" fill="none" xmlns="http://www.w3.org/2000/svg">
<rect x="1" y="1" width="62" height="62" rx="31" fill="white" stroke="#E2E8F0" stroke-width="2"/>
<path d="M33.7616 22.6621C33.0009 21.2796 30.9989 21.2796 30.2371 22.6621C29.2353 24.4826 28.4094 26.3945 27.7708 28.3718C27.7406 28.4491 27.6877 28.5155 27.6189 28.562C27.5501 28.6085 27.4688 28.6329 27.3858 28.632C25.6742 28.6764 23.9683 28.8465 22.2816 29.1406C20.7218 29.4125 20.0346 31.2838 21.2199 32.4423C21.3693 32.5885 21.5202 32.734 21.6726 32.8786C22.8145 33.9599 24.0237 34.968 25.2928 35.8968C25.3504 35.9351 25.3941 35.991 25.4172 36.0562C25.4404 36.1214 25.4417 36.1924 25.4211 36.2585C24.7804 38.1808 24.3226 40.1593 24.0538 42.1676C23.8321 43.829 25.5914 44.8486 26.9646 44.144C28.6316 43.2896 30.2256 42.2996 31.7304 41.1841C31.8092 41.1284 31.9034 41.0984 31.9999 41.0984C32.0965 41.0984 32.1906 41.1284 32.2694 41.1841C33.7734 42.301 35.3675 43.291 37.0353 44.144C38.4084 44.8486 40.1678 43.829 39.9461 42.1676C39.6776 40.1593 39.2202 38.1808 38.5799 36.2585C38.5593 36.1924 38.5606 36.1214 38.5838 36.0562C38.6069 35.991 38.6506 35.9351 38.7083 35.8968C40.1462 34.8443 41.5069 33.6903 42.7799 32.4435C43.9653 31.2838 43.2781 29.4125 41.7183 29.1406C40.0312 28.8464 38.3249 28.6764 36.6129 28.632C36.5301 28.6326 36.4491 28.6081 36.3805 28.5616C36.312 28.5152 36.2591 28.449 36.2291 28.3718C35.5925 26.3937 34.7654 24.4816 33.7616 22.6621Z" fill="#D4A574"/>
</svg>
