<svg width="32" height="32" viewBox="0 0 32 32" fill="none" xmlns="http://www.w3.org/2000/svg">
<rect x="0.5" y="0.5" width="31" height="31" rx="15.5" fill="#FEFEFE"/>
<rect x="0.5" y="0.5" width="31" height="31" rx="15.5" stroke="#E2E8F0"/>
<path d="M16.7115 8.9167C16.6406 8.79024 16.5373 8.68495 16.4122 8.61167C16.2872 8.53838 16.1448 8.49976 15.9998 8.49976C15.8549 8.49976 15.7125 8.53838 15.5874 8.61167C15.4624 8.68495 15.3591 8.79024 15.2882 8.9167C15.1215 9.22003 14.9612 9.52725 14.8073 9.83836C14.3225 10.8225 13.9103 11.8408 13.574 12.885C13.4582 13.2442 13.1148 13.4934 12.7215 13.5042C11.5292 13.5355 10.3408 13.6539 9.16567 13.8584C8.52067 13.9717 8.27817 14.7067 8.73651 15.155C8.84095 15.2578 8.94651 15.3592 9.05317 15.4592C9.85073 16.2124 10.694 16.9157 11.5782 17.565C11.884 17.7892 12.0098 18.1734 11.8932 18.525C11.4488 19.8609 11.1307 21.2355 10.9432 22.6309C10.8598 23.26 11.5332 23.7042 12.1182 23.4042C13.2782 22.8094 14.3875 22.1204 15.4348 21.3442C15.5989 21.2245 15.7967 21.1599 15.9998 21.1599C16.2029 21.1599 16.4008 21.2245 16.5648 21.3442C17.612 22.1207 18.7213 22.8097 19.8815 23.4042C20.4657 23.7042 21.1398 23.26 21.0565 22.6309C21.0243 22.3948 20.989 22.16 20.9507 21.9267C20.7582 20.7726 20.4759 19.6352 20.1065 18.525C19.9898 18.1734 20.1148 17.7892 20.4215 17.565C21.4246 16.83 22.3742 16.0247 23.2632 15.155C23.7215 14.7067 23.4798 13.9717 22.834 13.8584C21.6591 13.6527 20.4706 13.5343 19.2782 13.5042C19.0896 13.5012 18.9066 13.4401 18.7541 13.3293C18.6015 13.2185 18.4868 13.0634 18.4257 12.885C17.9829 11.5106 17.4089 10.1811 16.7115 8.9167Z" stroke="#E2E8F0" stroke-width="1.25" stroke-linecap="round" stroke-linejoin="round"/>
</svg>
