<svg width="117" height="30" viewBox="0 0 117 30" fill="none" xmlns="http://www.w3.org/2000/svg">
<path d="M99.2815 4.16675H108.295C109.856 4.16675 111.227 4.47925 112.407 5.10425C113.597 5.72925 114.514 6.61714 115.158 7.76793C115.812 8.91872 116.139 10.2431 116.139 11.7411C116.139 13.259 115.802 14.5834 115.129 15.7143C114.466 16.8354 113.529 17.7034 112.319 18.3185C111.11 18.9336 109.705 19.2411 108.105 19.2411H102.647V14.8066H107.022C107.715 14.8066 108.31 14.6826 108.808 14.4346C109.305 14.1866 109.681 13.8344 109.934 13.378C110.198 12.9217 110.329 12.3761 110.329 11.7411C110.329 11.1062 110.198 10.5606 109.934 10.1042C109.681 9.64789 109.305 9.30067 108.808 9.06257C108.32 8.82448 107.725 8.70543 107.022 8.70543H104.842V25.7143H99.2815V4.16675Z" fill="#2C3E50"/>
<path d="M96.4133 25.7143H90.8528V4.16675H96.4133V25.7143Z" fill="#2C3E50"/>
<path d="M71.45 4.16675H80.4638C82.0442 4.16675 83.4197 4.45941 84.5903 5.04472C85.7707 5.63004 86.6828 6.47329 87.3267 7.57448C87.9803 8.66575 88.3071 9.95543 88.3071 11.4435C88.3071 12.9415 87.9754 14.2263 87.3121 15.2977C86.6585 16.3592 85.7268 17.1628 84.5172 17.7084C83.3075 18.254 81.893 18.5268 80.2736 18.5268H74.7863V14.0923H79.1908C79.9224 14.0923 80.5273 14.003 81.0053 13.8245C81.4833 13.636 81.8491 13.3483 82.1027 12.9614C82.3661 12.5646 82.4978 12.0586 82.4978 11.4435C82.4978 10.8185 82.3661 10.3076 82.1027 9.91079C81.8491 9.50404 81.4784 9.20146 80.9906 9.00305C80.5029 8.80464 79.9029 8.70543 79.1908 8.70543H77.0105V25.7143H71.45V4.16675ZM89.0095 25.7143H82.9368L77.786 15.8483H83.727L89.0095 25.7143Z" fill="#2C3E50"/>
<path d="M68.7278 14.9403C68.7278 17.2518 68.2791 19.2459 67.3816 20.9224C66.4938 22.5891 65.2695 23.854 63.7087 24.7171C62.1576 25.5802 60.4114 26.0117 58.4701 26.0117C56.5288 26.0117 54.7826 25.5802 53.2315 24.7171C51.6804 23.854 50.4561 22.5841 49.5586 20.9076C48.6709 19.231 48.2271 17.2419 48.2271 14.9403C48.2271 12.609 48.6709 10.61 49.5586 8.94329C50.4561 7.27663 51.6804 6.01671 53.2315 5.16354C54.7826 4.30044 56.5288 3.8689 58.4701 3.8689C60.4114 3.8689 62.1576 4.30044 63.7087 5.16354C65.2695 6.01671 66.4938 7.27663 67.3816 8.94329C68.2791 10.61 68.7278 12.609 68.7278 14.9403ZM63.0063 14.9403C63.0063 13.6209 62.8307 12.5048 62.4795 11.5921C62.1381 10.6794 61.6259 9.98992 60.9431 9.52365C60.27 9.04746 59.4456 8.80936 58.4701 8.80936C57.4946 8.80936 56.6703 9.04746 55.9971 9.52365C55.324 9.98992 54.8119 10.6794 54.4607 11.5921C54.1192 12.5048 53.9485 13.6209 53.9485 14.9403C53.9485 16.2597 54.1192 17.3758 54.4607 18.2885C54.8119 19.2012 55.324 19.8957 55.9971 20.3718C56.6703 20.8381 57.4946 21.0712 58.4701 21.0712C59.4456 21.0712 60.27 20.8381 60.9431 20.3718C61.6259 19.8957 62.1381 19.2012 62.4795 18.2885C62.8307 17.3758 63.0063 16.2597 63.0063 14.9403Z" fill="#2C3E50"/>
<path d="M28.9846 4.16675H34.5451V12.9911H34.8378L41.3787 4.16675H47.905L40.6324 13.7649L48.066 25.7143H41.3934L36.4913 17.5149L34.5451 20.0745V25.7143H28.9846V4.16675Z" fill="#2C3E50"/>
<path d="M19.9592 3.77144C19.9592 3.77144 14.6403 -3.5111 5.00201 2.16336C5.00201 2.16336 1.36722 4.46765 1.83974 8.4293C1.83974 8.4293 2.46977 12.0706 5.57752 12.5019C5.57752 12.5019 9.26683 13.2535 11.6355 10.9492C11.6355 10.9492 14.2404 8.32456 15.9367 8.26911C15.9367 8.26911 17.954 7.78854 19.7169 8.34921C19.7169 8.34921 21.1102 8.82978 21.401 9.23026C21.401 9.23026 22.3218 9.90183 22.4005 9.01462C22.4005 9.01462 22.1885 6.47004 19.9531 3.76528L19.9592 3.77144Z" fill="#FF6B7A"/>
<path d="M1.87534 12.13C1.87534 12.13 3.35681 14.9528 6.37998 15.0331C6.37998 15.0331 10.433 15.0763 12.1192 13.1801C12.1192 13.1801 14.5642 10.8885 16.136 10.5797C16.136 10.5797 19.4904 9.88169 21.0201 12.1115C21.0201 12.1115 22.5015 14.1807 21.6885 16.4908C21.5019 17.4605 17.5934 25.3358 13.8416 28.9554C13.8416 28.9554 12.9924 30.061 11.8 29.9931C11.8 29.9931 10.6738 30.1537 9.62598 28.9245C9.62598 28.9245 2.71243 20.9998 1.2972 15.0701C1.2972 15.0701 0.719067 13.0812 0.893712 12.1671C0.893712 12.1671 1.10449 11.0614 1.88136 12.1238L1.87534 12.13Z" fill="#2C3E50"/>
</svg>
