<svg width="213" height="124" viewBox="0 0 213 124" fill="none" xmlns="http://www.w3.org/2000/svg">
<g clip-path="url(#clip0_253_2821)">
<path d="M210.717 60.3231C207.655 56.9888 204.292 54.0146 200.691 51.4152C200.661 51.3906 200.631 51.3708 200.597 51.3462C188.763 42.8378 174.339 38.4332 159.449 39.1139L142.642 39.8636L119.327 21.9492C115.76 19.2364 111.352 17.7567 106.943 17.7567H85.3466C83.6625 17.7567 82.2755 18.6938 81.6811 20.2722C81.1363 21.8506 81.5325 23.5276 82.8204 24.6127L103.209 41.6097L49.1375 43.9969C48.4935 43.9969 47.8991 43.7503 47.5029 43.2571L47.4533 43.2078L37.1503 30.7288L26.5996 18.0033C25.2622 16.4249 23.3304 15.5371 21.3491 15.5371H4.35898C2.82344 15.5371 1.43649 16.3263 0.643951 17.6087C-0.148588 18.8911 -0.198122 20.4202 0.445816 21.7519L19.5658 62.1481C22.4388 68.2149 27.7884 72.6047 34.3269 74.1831C46.3784 77.1376 64.9585 80.97 87.3825 83.4066L62.5116 104.123C61.2237 105.208 60.7779 106.835 61.3228 108.414C61.9172 110.041 63.3537 111.028 65.0378 111.028H86.6345C91.1421 111.028 95.5506 109.548 98.9684 106.835L126.336 85.7742H128.689C157.715 85.7742 184.018 82.0256 206.803 74.627C209.726 73.6899 211.905 71.3716 212.698 68.4122C213.49 65.5514 212.698 62.4934 210.717 60.3231ZM204.386 60.8163H177.326C175.939 60.8163 174.8 59.6326 174.8 58.3008C174.8 56.9691 175.988 55.7853 177.326 55.7853H198.427C200.508 57.3242 202.499 59.0062 204.386 60.8163ZM106.993 22.5411C110.361 22.5411 113.729 23.6755 116.404 25.7471L135.202 40.1941L110.431 41.294L87.967 22.546H106.988L106.993 22.5411ZM21.3986 20.3708C21.993 20.3708 22.5874 20.6668 22.9837 21.1107L30.6267 30.3293L10.7191 32.0606L5.20106 20.3708H21.3986ZM96.0955 103.038C93.4206 105.109 90.1019 106.244 86.684 106.244H67.6631L107.538 73.0486C108.429 72.2595 109.668 71.8156 110.906 71.8156H136.664L96.0955 103.038ZM208.042 67.2778C207.695 68.6588 206.704 69.6946 205.367 70.1385C184.067 76.9551 159.613 80.5853 132.656 80.9109L141.716 73.9365C143.053 72.9007 143.549 71.1743 143.004 69.596C142.41 68.0176 140.973 66.9818 139.289 66.9818H110.807C108.38 66.9818 106.101 67.8203 104.318 69.3L92.5389 79.1105C68.2575 76.7726 48.1567 72.6097 35.4662 69.4973C30.4633 68.2642 26.1538 64.8116 23.9743 60.1258L12.9085 36.6921L34.3467 34.8276L43.7383 46.3152C45.0262 47.9428 47.1561 48.9293 49.3356 48.8307L109.311 46.1869C109.43 46.2066 109.549 46.2165 109.668 46.2165C109.861 46.2165 110.049 46.1869 110.232 46.1425L141.964 44.7368L142.226 44.7269C142.226 44.7269 142.246 44.7269 142.261 44.7269L159.702 43.9525C170.639 43.4741 181.323 45.9551 190.754 50.9565H177.336C173.274 50.9565 169.955 54.2612 169.955 58.3058C169.955 62.3503 173.274 65.655 177.336 65.655H208.141C208.22 66.1828 208.19 66.7303 208.047 67.2827L208.042 67.2778Z" fill="#8B9DC3"/>
<path d="M173.616 29.0517H149.889C144.193 29.0517 139.536 24.4153 139.536 18.743C139.536 13.0708 144.193 8.43437 149.889 8.43437C150.434 8.43437 150.979 8.48369 151.524 8.58234C152.366 3.74861 156.626 0 161.728 0C166.83 0 171.089 3.69928 171.932 8.58234C172.476 8.48369 173.021 8.43437 173.566 8.43437C179.263 8.43437 183.919 13.0708 183.919 18.743C183.919 24.4153 179.312 29.0517 173.616 29.0517ZM149.889 13.2681C146.867 13.2681 144.341 15.7343 144.341 18.7924C144.341 21.8504 146.818 24.3166 149.889 24.3166H173.616C176.637 24.3166 179.163 21.8504 179.163 18.7924C179.163 15.7343 176.687 13.2681 173.616 13.2681C172.625 13.2681 171.634 13.564 170.743 14.0573C169.95 14.5505 168.91 14.5012 168.117 13.9586C167.325 13.4161 166.929 12.4789 167.127 11.5418C167.226 11.0979 167.275 10.6539 167.275 10.2593C167.275 7.2506 164.799 4.73508 161.728 4.73508C158.657 4.73508 156.18 7.20127 156.18 10.2593C156.18 10.7033 156.229 11.0485 156.279 11.3445C156.527 12.2816 156.18 13.3174 155.387 13.9093C154.595 14.5012 153.555 14.5505 152.712 14.0573C151.87 13.5147 150.88 13.2681 149.889 13.2681Z" fill="#F3F4F6"/>
<path d="M151.722 124H127.995C122.299 124 117.643 119.364 117.643 113.691C117.643 108.019 122.299 103.383 127.995 103.383C128.54 103.383 129.085 103.432 129.63 103.531C130.472 98.6968 134.732 94.9482 139.834 94.9482C144.936 94.9482 149.196 98.6475 150.038 103.531C150.583 103.432 151.127 103.383 151.672 103.383C157.369 103.383 162.025 108.019 162.025 113.691C162.025 119.364 157.418 124 151.722 124ZM127.995 108.167C124.974 108.167 122.447 110.633 122.447 113.691C122.447 116.749 124.924 119.216 127.995 119.216H151.722C154.743 119.216 157.27 116.749 157.27 113.691C157.27 110.633 154.793 108.167 151.722 108.167C150.731 108.167 149.74 108.463 148.849 108.956C148.056 109.449 147.016 109.4 146.224 108.858C145.431 108.315 145.035 107.378 145.233 106.441C145.332 105.997 145.381 105.553 145.381 105.158C145.381 102.15 142.905 99.634 139.834 99.634C136.763 99.634 134.286 102.1 134.286 105.158C134.286 105.602 134.335 105.947 134.385 106.243C134.633 107.181 134.286 108.216 133.493 108.808C132.701 109.4 131.661 109.449 130.819 108.956C129.976 108.463 128.986 108.167 127.995 108.167Z" fill="#F3F4F6"/>
<path d="M37.5466 111.866H13.82C8.12358 111.866 3.46741 107.23 3.46741 101.557C3.46741 95.8853 8.12358 91.2488 13.82 91.2488C14.3648 91.2488 14.9097 91.2981 15.4546 91.3968C16.2966 86.5137 20.5565 82.8145 25.6585 82.8145C30.7605 82.8145 35.0204 86.5137 35.8625 91.3968C36.4073 91.2981 36.9522 91.2488 37.4971 91.2488C43.1935 91.2488 47.8496 95.8853 47.8496 101.557C47.8496 107.23 43.243 111.866 37.5466 111.866ZM13.82 96.0332C10.7984 96.0332 8.27218 98.4994 8.27218 101.557C8.27218 104.616 10.7489 107.082 13.82 107.082H37.5466C40.5682 107.082 43.0944 104.616 43.0944 101.557C43.0944 98.4994 40.6177 96.0332 37.5466 96.0332C36.5559 96.0332 35.5653 96.3292 34.6737 96.8224C33.8811 97.3157 32.8409 97.2663 32.0484 96.7238C31.2558 96.1812 30.8596 95.244 31.0577 94.3069C31.1568 93.863 31.2063 93.4191 31.2063 93.0245C31.2063 90.0157 28.7296 87.5002 25.6585 87.5002C22.5874 87.5002 20.1107 89.9664 20.1107 93.0245C20.1107 93.4684 20.1603 93.8137 20.2098 94.1096C20.4575 95.0468 20.1107 96.0826 19.3182 96.6744C18.5257 97.2663 17.4855 97.3157 16.6434 96.8224C15.8013 96.3292 14.8106 96.0332 13.82 96.0332Z" fill="#F3F4F6"/>
</g>
<defs>
<clipPath id="clip0_253_2821">
<rect width="213" height="124" fill="white"/>
</clipPath>
</defs>
</svg>
